<?xml version="1.0" standalone="no"?>
<!DOCTYPE svg PUBLIC "-//W3C//DTD SVG 20010904//EN"
 "http://www.w3.org/TR/2001/REC-SVG-20010904/DTD/svg10.dtd">
<svg version="1.0" xmlns="http://www.w3.org/2000/svg"
 width="344.000000pt" height="344.000000pt" viewBox="0 0 344.000000 344.000000"
 preserveAspectRatio="xMidYMid meet">
<metadata>
Created by potrace 1.14, written by Peter Selinger 2001-2017
</metadata>
<g transform="translate(0.000000,344.000000) scale(0.100000,-0.100000)"
fill="#000000" stroke="none">
<path d="M1590 3112 c-217 -19 -459 -107 -646 -232 -98 -66 -116 -81 -224
-190 -221 -223 -354 -506 -389 -825 -35 -320 50 -654 237 -935 57 -85 213
-251 287 -307 212 -159 432 -253 675 -288 73 -11 259 -13 340 -3 447 50 838
306 1061 693 27 47 49 88 49 90 0 2 11 28 24 57 78 174 112 348 110 568 -5
524 -301 995 -775 1231 -116 58 -265 108 -369 124 -25 4 -54 9 -65 11 -26 6
-270 11 -315 6z m325 -117 c270 -52 450 -135 636 -292 239 -201 395 -481 446
-798 10 -63 10 -281 0 -359 -23 -181 -119 -424 -228 -574 l-54 -74 -23 29
c-98 115 -233 234 -330 290 -26 14 -52 30 -58 34 -7 6 6 41 38 105 26 52 48
104 48 114 0 24 18 35 60 39 58 4 133 45 172 92 72 88 84 204 32 299 -42 76
-136 140 -207 140 -30 0 -32 2 -35 40 -4 64 -48 189 -90 258 -138 230 -368
356 -629 346 -153 -5 -290 -56 -408 -151 -142 -115 -219 -254 -261 -469 -3
-17 -13 -23 -49 -27 -156 -22 -258 -194 -207 -350 31 -96 129 -172 230 -179
41 -3 42 -4 59 -58 16 -53 34 -91 74 -156 22 -36 23 -34 -54 -78 -95 -54 -235
-177 -329 -290 l-25 -29 -52 74 c-29 41 -77 124 -107 184 -88 181 -125 331
-130 530 -5 229 35 410 137 615 186 376 576 653 979 696 30 3 57 8 59 10 6 6
269 -3 306 -11z m-144 -422 c7 -70 29 -132 66 -180 43 -57 54 -66 114 -97 77
-41 145 -47 255 -21 29 7 32 5 48 -34 9 -23 16 -45 16 -50 0 -27 -184 -49
-261 -31 -187 44 -338 215 -339 383 l0 37 50 0 c28 0 50 -3 51 -7z m-216 -70
c-11 -85 -34 -140 -83 -192 -73 -77 -157 -109 -275 -103 l-28 2 26 49 c24 44
31 50 70 55 68 11 132 57 160 119 14 28 25 59 25 67 0 15 61 47 93 49 16 1 18
-5 12 -46z m400 27 c54 -23 126 -71 175 -116 l34 -33 -24 -9 c-86 -32 -217 44
-248 143 -12 42 -5 44 63 15z m-310 -242 c72 -109 205 -202 331 -231 75 -18
205 -14 268 8 40 14 50 14 58 3 5 -7 7 -128 5 -268 -3 -239 -4 -259 -26 -319
-66 -179 -185 -302 -353 -365 -316 -119 -649 40 -769 366 -22 59 -24 79 -26
323 -3 254 1 310 18 300 17 -11 137 -8 190 5 30 7 74 24 99 38 55 30 132 103
156 148 10 19 19 34 20 34 1 0 14 -19 29 -42z m-625 -513 l0 -165 -25 4 c-68
12 -135 90 -135 155 0 70 49 137 117 158 21 6 39 12 41 12 1 1 2 -73 2 -164z
m1510 112 c92 -94 48 -240 -82 -271 l-28 -6 0 164 0 164 40 -10 c22 -6 53 -24
70 -41z m-1246 -765 c75 -58 139 -92 231 -123 59 -20 90 -24 195 -24 129 0
157 4 238 31 74 25 121 52 200 111 l73 56 47 -26 c25 -14 48 -30 50 -36 6 -17
-119 -108 -213 -156 -137 -69 -222 -88 -390 -88 -123 0 -151 3 -230 27 -49 15
-123 45 -164 67 -75 41 -201 134 -201 149 0 9 77 57 94 59 4 1 36 -20 70 -47z
m-144 -174 c25 -20 75 -52 111 -72 373 -204 823 -148 1130 141 l35 33 59 -52
c32 -29 83 -82 112 -118 l54 -65 -58 -53 c-185 -168 -456 -293 -697 -320 -79
-9 -265 -9 -339 0 -247 32 -504 153 -705 334 l-43 39 54 65 c29 36 80 89 112
118 l59 52 36 -33 c19 -19 55 -50 80 -69z"/>
<path d="M1419 1837 c-80 -39 -98 -149 -35 -213 58 -58 155 -46 203 25 35 52
32 112 -10 157 -44 48 -101 60 -158 31z"/>
<path d="M1929 1848 c-20 -5 -50 -23 -65 -39 -25 -27 -29 -38 -29 -90 0 -57 2
-63 37 -95 35 -32 55 -39 103 -35 110 9 158 147 79 226 -14 14 -26 25 -27 25
-1 0 -16 4 -32 8 -17 5 -46 4 -66 0z"/>
<path d="M1512 1408 c37 -164 229 -227 352 -115 34 32 56 73 70 130 l6 27
-219 0 -219 0 10 -42z"/>
</g>
</svg>
